<svg viewBox="0 0 119.594 123.289" xmlns="http://www.w3.org/2000/svg">
	<g paint-order="stroke">
		<path
			d="M0 123.29h21.105V74.222h14.07v49.066H56.28V75.981c0-6.684-4.575-11.61-10.903-12.489 6.328-.7 10.903-5.627 10.903-12.31V17.942C56.28 7.563 48.716 0 38.342 0L0 .178zm21.105-70V21.106l14.07-.173v32.359zm77.384 70h21.105V18.115c0-10.374-7.564-17.938-17.938-17.938H81.252c-10.374 0-17.938 7.563-17.938 17.938v105.173H84.42V77.562h14.07zm-14.07-66.832V21.283h14.07v35.175z"
			fill="#fff" />
		<path
			d="M15.13 83.21h12.555v-5.796h-6.76V49.407h-5.796zm32.353 0h5.795V54.331c0-2.846-2.079-4.925-4.925-4.925H42.75c-2.852 0-4.925 2.079-4.925 4.925V83.21h5.794V70.654h3.863zM43.62 64.86V55.2h3.863v9.658zM63.42 83.21h10.527c2.851 0 4.925-2.075 4.925-4.926v-9.999c0-1.835-1.255-3.187-2.994-3.426 1.739-.193 2.994-1.545 2.994-3.38v-7.147c0-2.846-2.074-4.925-4.925-4.925H63.419zm5.794-5.796v-9.607h3.863v9.607zm0-15.401V55.2h3.863v6.812zm24.724 6.226h4.733v9.175h-3.863v-3.863h-5.795v4.733c0 2.851 2.079 4.925 4.925 4.925h5.602c2.846 0 4.925-2.074 4.925-4.925V67.37c0-2.851-2.079-4.925-4.925-4.925h-4.733V55.2h3.863v3.864h5.795v-4.733c0-2.846-2.079-4.925-4.925-4.925h-5.602c-2.847 0-4.925 2.079-4.925 4.925v8.982c0 2.846 2.079 4.925 4.925 4.925z"
			fill="#7f7f7f" />
	</g>
</svg>
